name GIL11_free1.mot
datacolumns 153
datarows 4
range 0.37499994 0.39999995
endheader

                time	           pelvis_tx	           pelvis_ty	           pelvis_tz	         pelvis_tilt	         pelvis_list	     pelvis_rotation	       hip_flexion_r	     hip_adduction_r	      hip_rotation_r	        knee_angle_r	       ankle_angle_r	    subtalar_angle_r	         mtp_angle_r	       hip_flexion_l	     hip_adduction_l	      hip_rotation_l	        knee_angle_l	       ankle_angle_l	    subtalar_angle_l	         mtp_angle_l	    lumbar_extension	      lumbar_bending	     lumbar_rotation	     ground_force_vx	     ground_force_vy	     ground_force_vz	     ground_force_px	     ground_force_py	     ground_force_pz	     ground_force_vx	     ground_force_vy	     ground_force_vz	     ground_force_px	     ground_force_py	     ground_force_pz	     ground_torque_x	     ground_torque_y	     ground_torque_z	     ground_torque_x	     ground_torque_y	     ground_torque_z	    ground_marker_px	    ground_marker_py	    ground_marker_pz	    ground_marker_px	    ground_marker_py	    ground_marker_pz	    ground_marker_px	    ground_marker_py	    ground_marker_pz	    ground_marker_px	    ground_marker_py	    ground_marker_pz	    ground_marker_px	    ground_marker_py	    ground_marker_pz	    ground_marker_px	    ground_marker_py	    ground_marker_pz	    ground_marker_px	    ground_marker_py	    ground_marker_pz	    ground_marker_px	    ground_marker_py	    ground_marker_pz	    ground_marker_px	    ground_marker_py	    ground_marker_pz	    ground_marker_px	    ground_marker_py	    ground_marker_pz	    ground_marker_px	    ground_marker_py	    ground_marker_pz	    ground_marker_px	    ground_marker_py	    ground_marker_pz	    ground_marker_px	    ground_marker_py	    ground_marker_pz	    ground_marker_px	    ground_marker_py	    ground_marker_pz	    ground_marker_px	    ground_marker_py	    ground_marker_pz	    ground_marker_px	    ground_marker_py	    ground_marker_pz	    ground_marker_px	    ground_marker_py	    ground_marker_pz	    ground_marker_px	    ground_marker_py	    ground_marker_pz	    ground_marker_px	    ground_marker_py	    ground_marker_pz	    ground_marker_px	    ground_marker_py	    ground_marker_pz	    ground_marker_px	    ground_marker_py	    ground_marker_pz	    ground_marker_px	    ground_marker_py	    ground_marker_pz	    ground_marker_px	    ground_marker_py	    ground_marker_pz	    ground_marker_px	    ground_marker_py	    ground_marker_pz	    ground_marker_px	    ground_marker_py	    ground_marker_pz	    ground_marker_px	    ground_marker_py	    ground_marker_pz	    ground_marker_px	    ground_marker_py	    ground_marker_pz	    ground_marker_px	    ground_marker_py	    ground_marker_pz	    ground_marker_px	    ground_marker_py	    ground_marker_pz	    ground_marker_px	    ground_marker_py	    ground_marker_pz	    ground_marker_px	    ground_marker_py	    ground_marker_pz	    ground_marker_px	    ground_marker_py	    ground_marker_pz	    ground_marker_px	    ground_marker_py	    ground_marker_pz	    ground_marker_px	    ground_marker_py	    ground_marker_pz	    ground_marker_px	    ground_marker_py	    ground_marker_pz	    ground_marker_px	    ground_marker_py	    ground_marker_pz	    ground_marker_px	    ground_marker_py	    ground_marker_pz	
          0.37499994	          0.87946403	          0.87746000	         -0.31681970	         -6.67445755	         -0.67775148	          5.65409231	         33.87417221	         -3.47456717	          1.12244368	        -41.31261444	          1.55521071	          0.00000000	          0.00000000	          5.22142410	          3.06031680	         15.10394287	        -11.27674198	         10.20476723	          0.00000000	          0.00000000	          0.26227170	         -3.71098995	         -3.40579271	          0.00000000	          0.00000000	          0.00000000	          1.18440051	          0.00000000	         -0.25112186	          7.48798417	        528.96297708	         32.58383961	          0.78098334	          0.00000000	         -0.37228021	          0.00000000	          0.00000000	          0.00000000	          0.00000000	         -1.83778369	          0.00000000	          0.80161381	          0.82325161	         -0.30914468	          0.79632020	          0.80561841	         -0.23377873	          0.77657998	          0.80877686	         -0.38458708	          0.97376597	          0.46176237	         -0.23457539	          0.76829904	          0.42553142	         -0.37105435	          0.88243169	          0.10401736	         -0.25009564	          0.68682498	          0.06856479	         -0.35155815	          0.87946403	          0.87746000	         -0.31681970	          0.89077687	          0.87508398	         -0.20089288	          0.86815119	          0.87983602	         -0.43274653	          0.69204104	          0.94337672	         -0.26228198	          0.68403959	          0.94162673	         -0.31634253	          0.97879928	          0.46422601	         -0.17684676	          0.77782542	          0.42330685	         -0.42822340	          0.97972977	          0.46711800	         -0.29284108	          0.78089166	          0.44142807	         -0.30788520	          0.86875492	          0.10588038	         -0.21255267	          0.67559880	          0.06903035	         -0.38994768	          0.89927608	          0.10806094	         -0.28158233	          0.69530141	          0.07878483	         -0.32582408	          0.77667433	          1.37859118	         -0.31114352	          0.90332723	          1.32030988	         -0.26697272	          0.89856392	          1.31497693	         -0.37315002	          0.89755988	          1.31436265	         -0.31914788	          0.93832701	          1.24546099	         -0.32141027	          1.05430794	          0.66080028	         -0.25495026	          0.82401371	          0.55406368	         -0.51863325	          0.97815007	          0.67534965	         -0.19272469	          0.76216573	          0.60637110	         -0.46593365	          1.00940621	          0.59265906	         -0.19622207	          0.76836854	          0.52107775	         -0.44870815	          0.88017666	          0.18146755	         -0.13758686	          0.80347776	          0.17363086	         -0.34576240	          0.88728940	          0.18941902	         -0.18135466	          0.76320916	          0.18069342	         -0.35680899	          0.96803075	          0.05828832	         -0.21966699	          0.79084092	          0.04161271	         -0.37555629	
          0.38333327	          0.88789505	          0.87651825	         -0.31669965	         -6.72984886	         -0.77408361	          5.80098963	         34.15105820	         -3.38889384	          1.40239632	        -38.43652725	          1.65051019	          0.00000000	          0.00000000	          4.52732086	          2.92159748	         15.40981579	        -11.02173042	         10.55450058	          0.00000000	          0.00000000	          0.27633753	         -3.47981596	         -3.56533599	          0.00000000	          0.00000000	          0.00000000	          1.18769385	          0.00000000	         -0.25027411	         10.79134575	        533.06790433	         32.94425389	          0.78341443	          0.00000000	         -0.37241925	          0.00000000	          0.00000000	          0.00000000	          0.00000000	         -1.95287085	          0.00000000	          0.81029075	          0.82241297	         -0.30918938	          0.80492640	          0.80482382	         -0.23335692	          0.78474182	          0.80788606	         -0.38410842	          0.98371452	          0.46147516	         -0.23514128	          0.77142251	          0.42514336	         -0.37072450	          0.91163808	          0.09888386	         -0.24870577	          0.68680000	          0.06880362	         -0.35137549	          0.88789505	          0.87651825	         -0.31669965	          0.89956230	          0.87421757	         -0.20067793	          0.87622780	          0.87881899	         -0.43272138	          0.70088691	          0.94255751	         -0.26177284	          0.69271505	          0.94086170	         -0.31575954	          0.98919410	          0.46402869	         -0.17745720	          0.78104466	          0.42281011	         -0.42787313	          0.98785156	          0.46712697	         -0.29519537	          0.78327131	          0.44116601	         -0.30711961	          0.89807284	          0.10017350	         -0.21109834	          0.67566496	          0.06936204	         -0.38979036	          0.92698836	          0.10323790	         -0.28089923	          0.69664621	          0.07881463	         -0.32557335	          0.78619397	          1.37761712	         -0.31116945	          0.91257226	          1.31920290	         -0.26689631	          0.90782750	          1.31418967	         -0.37309432	          0.90682238	          1.31340230	         -0.31919956	          0.94751287	          1.24448240	         -0.32155043	          1.06279993	          0.66069794	         -0.25631899	          0.82906950	          0.55323285	         -0.51793343	          0.98675263	          0.67493713	         -0.19347979	          0.76779830	          0.60598886	         -0.46581349	          1.01820993	          0.59157681	         -0.19779882	          0.77276903	          0.52040434	         -0.44823506	          0.90577930	          0.17653327	         -0.13653459	          0.80447352	          0.17282222	         -0.34530631	          0.91140383	          0.18373249	         -0.18108860	          0.76412040	          0.18062794	         -0.35633096	          0.99955070	          0.05824261	         -0.21870261	          0.79091090	          0.04156197	         -0.37539163	
          0.39166662	          0.89638746	          0.87551188	         -0.31660175	         -6.77742767	         -0.83877271	          5.96545792	         34.32828903	         -3.35640383	          1.70466983	        -35.46766663	          1.67299223	          0.00000000	          0.00000000	          3.82828903	          2.82976246	         15.62183380	        -10.78714085	         10.87178898	          0.00000000	          0.00000000	          0.15536545	         -3.42358494	         -3.73255491	          0.00000000	          0.00000000	          0.00000000	          1.19085461	          0.00000000	         -0.24951770	         14.40237763	        537.82250501	         33.24506686	          0.78577020	          0.00000000	         -0.37249329	          0.00000000	          0.00000000	          0.00000000	          0.00000000	         -2.11761890	          0.00000000	          0.81863880	          0.82099998	         -0.30914980	          0.81361353	          0.80390173	         -0.23299325	          0.79296732	          0.80695969	         -0.38368228	          0.99322212	          0.46077639	         -0.23559627	          0.77467084	          0.42481452	         -0.37033999	          0.94073701	          0.09433251	         -0.24718818	          0.68685955	          0.06909558	         -0.35114178	          0.89638746	          0.87551188	         -0.31660175	          0.90842205	          0.87321556	         -0.20050065	          0.88435286	          0.87780815	         -0.43270287	          0.70986855	          0.94160420	         -0.26118213	          0.70147711	          0.93998146	         -0.31508136	          0.99915487	          0.46344465	         -0.17796221	          0.78428721	          0.42235896	         -0.42748448	          0.99489367	          0.46654776	         -0.29680437	          0.78587848	          0.44007671	         -0.30756995	          0.92733669	          0.09505981	         -0.20950657	          0.67574191	          0.06976662	         -0.38955984	          0.95347250	          0.10027175	         -0.28016770	          0.69734871	          0.07873637	         -0.32548651	          0.79661280	          1.37637758	         -0.31138855	          0.92198074	          1.31836843	         -0.26699403	          0.91720676	          1.31340027	         -0.37323847	          0.91611242	          1.31232917	         -0.31921437	          0.95686650	          1.24365067	         -0.32171020	          1.07114482	          0.65993005	         -0.25767034	          0.83397639	          0.55236852	         -0.51730114	          0.99518824	          0.67381018	         -0.19419560	          0.77336085	          0.60610563	         -0.46583891	          1.02614713	          0.59053457	         -0.19897066	          0.77727276	          0.51948988	         -0.44836324	          0.93134242	          0.17206463	         -0.13541344	          0.80554008	          0.17200746	         -0.34498104	          0.93473709	          0.17881560	         -0.17954265	          0.76522964	          0.18024445	         -0.35596776	          1.03080356	          0.05876210	         -0.21800651	          0.79097056	          0.04150972	         -0.37519035	
          0.39999995	          0.90496826	          0.87445152	         -0.31653047	         -6.80964088	         -0.87766242	          6.14828682	         34.40630722	         -3.36815691	          2.01527381	        -32.43915176	          1.61868978	          0.00000000	          0.00000000	          3.11719990	          2.77745390	         15.72206497	        -10.57503796	         11.15855026	          0.00000000	          0.00000000	          0.17727169	         -3.39686465	         -3.89818287	          0.00000000	          0.00000000	          0.00000000	          1.19396655	          0.00000000	         -0.24879446	         18.31675971	        543.14371443	         33.67344205	          0.78805206	          0.00000000	         -0.37249603	          0.00000000	          0.00000000	          0.00000000	          0.00000000	         -2.30606836	          0.00000000	          0.82694870	          0.81939983	         -0.30898124	          0.82242191	          0.80285960	         -0.23268178	          0.80128962	          0.80598843	         -0.38330197	          1.00237465	          0.45969602	         -0.23596573	          0.77807969	          0.42452136	         -0.36989978	          0.96960801	          0.09044468	         -0.24560857	          0.68703151	          0.06944051	         -0.35083053	          0.90496826	          0.87445152	         -0.31653047	          0.91738927	          0.87210083	         -0.20035975	          0.89254731	          0.87680227	         -0.43270117	          0.71896875	          0.94051462	         -0.26050895	          0.71031618	          0.93898672	         -0.31432217	          1.00876141	          0.46249413	         -0.17838639	          0.78756696	          0.42193592	         -0.42706016	          1.00257897	          0.46526942	         -0.29746497	          0.78916228	          0.43920270	         -0.30772194	          0.95641983	          0.09062883	         -0.20784567	          0.67585105	          0.07024527	         -0.38922781	          0.98089552	          0.09783235	         -0.27867725	          0.69685674	          0.07877445	         -0.32552010	          0.80592072	          1.37524211	         -0.31148699	          0.93118840	          1.31727827	         -0.26700464	          0.92637026	          1.31236243	         -0.37348661	          0.92547548	          1.31116164	         -0.31918561	          0.96605396	          1.24258888	         -0.32189444	          1.07933748	          0.65848476	         -0.25897843	          0.83871883	          0.55150294	         -0.51675940	          1.00383782	          0.67241269	         -0.19511469	          0.77851176	          0.60600579	         -0.46517640	          1.03447378	          0.58956075	         -0.19993924	          0.78155506	          0.51948798	         -0.44816050	          0.95675379	          0.16816051	         -0.13425164	          0.80669373	          0.17119661	         -0.34478855	          0.95897329	          0.17483652	         -0.17728896	          0.76656485	          0.17946778	         -0.35556728	          1.06165636	          0.05987203	         -0.21754560	          0.79102039	          0.04146030	         -0.37495515	
